   For more quality and secure releases, plus a great community.... http://sceneleakers.me/signup.php     Home 
of group SLRG.

Something.from.Nothing.the.Art.of.Rap.2012.DVDRip.Xvid.Ac3-SLRG



[IMG]http://i1079.photobucket.com/albums/w505/MafiaJoe916/SLRG/PLOT_zps3697e952.png[/IMG]
A documentary on rap music and its rise to global prominence.


[IMG]http://i1079.photobucket.com/albums/w505/MafiaJoe916/SLRG/IMDB_zps420a730c.png[/IMG] 
http://www.imdb.com/title/tt2062996/

[IMG]http://i1079.photobucket.com/albums/w505/MafiaJoe916/SLRG/INFO_zps212b4073.png[/IMG]
Format                                   : AVI
Format/Info                              : Audio Video Interleave
File size                                : 1.13 GiB
Duration                                 : 1h 51mn
Overall bit rate                         : 1 454 Kbps
Writing library                          : VirtualDub build 32842/release
Mediainfo:
[IMG]http://i1079.photobucket.com/albums/w505/MafiaJoe916/SLRG/VIDEO_zps696c472e.png[/IMG]
ID                                       : 0
Format                                   : MPEG-4 Visual
Format profile                           : Advanced Simple@L5
Format settings, BVOP                    : 2
Format settings, QPel                    : Yes
Format settings, GMC                     : No warppoints
Format settings, Matrix                  : Default (H.263)
Codec ID                                 : XVID
Codec ID/Hint                            : XviD
Duration                                 : 1h 51mn
Bit rate                                 : 996 Kbps
Width                                    : 720 pixels
Height                                   : 400 pixels
Display aspect ratio                     : 16:9
Frame rate                               : 23.976 fps
Color space                              : YUV
Chroma subsampling                       : 4:2:0
Bit depth                                : 8 bits
Scan type                                : Progressive
Compression mode                         : Lossy
Bits/(Pixel*Frame)                       : 0.144
Stream size                              : 795 MiB (69%)
Writing library                          : XviD 1.2.1 (UTC 2008-12-04)

[IMG]http://i1079.photobucket.com/albums/w505/MafiaJoe916/SLRG/AUDIO_zps8b8ce099.png[/IMG]
ID                                       : 1
Format                                   : AC-3
Format/Info                              : Audio Coding 3
Mode extension                           : CM (complete main)
Format settings, Endianness              : Big
Codec ID                                 : 2000
Duration                                 : 1h 51mn
Bit rate mode                            : Constant
Bit rate                                 : 448 Kbps
Channel(s)                               : 6 channels
Channel positions                        : Front: L C R, Side: L R, LFE
Sampling rate                            : 48.0 KHz
Bit depth                                : 16 bits
Compression mode                         : Lossy
Stream size                              : 357 MiB (31%)
Alignment                                : Split accross interleaves
Interleave, duration                     : 42 ms (1.00 video frame)
Interleave, preload duration             : 500 ms


Source: DVD-R CME

Screenshots:

[IMG]http://i1079.photobucket.com/albums/w505/MafiaJoe916/SLRG/SLRG_zps681b4f20.png[/IMG]

Respects: To all the P2P groups keep up the fight :)

LOOKING FOR PRE-RELEASE DVDs/Blu-ray Releases

slrg@hushmail.com
